<svg width="346" height="337" viewBox="0 0 346 337" fill="none" xmlns="http://www.w3.org/2000/svg">
<path d="M0 174C0 83.9776 72.9776 11 163 11C253.022 11 326 83.9776 326 174C326 264.022 253.022 337 163 337C72.9776 337 0 264.022 0 174Z" fill="url(#paint0_linear)"/>
<path d="M345.39 14.0708C152.876 3.04546 107.527 170.657 87.534 258.433C85.6608 266.658 91.6621 274.566 100.083 275.048C106.587 275.421 112.385 271.112 114.431 264.927C127.063 226.734 150.204 206.5 183.864 204.214C238.854 200.488 282.55 154.861 298.554 114.523L278.865 99.6444L293.299 86.7198C307.734 73.7951 322.615 54.0204 345.39 14.0708Z" fill="url(#paint1_linear)"/>
<defs>
<linearGradient id="paint0_linear" x1="230" y1="38.5" x2="74.5" y2="310.5" gradientUnits="userSpaceOnUse">
<stop stop-color="#74DC87"/>
<stop offset="1" stop-color="#43AD57"/>
</linearGradient>
<linearGradient id="paint1_linear" x1="193" y1="118" x2="299.5" y2="288" gradientUnits="userSpaceOnUse">
<stop stop-color="white"/>
<stop offset="1" stop-color="#5AB76B"/>
</linearGradient>
</defs>
</svg>
