<svg width="24" height="24" viewBox="0 0 24 24" fill="none" xmlns="http://www.w3.org/2000/svg">
<circle cx="12" cy="12" r="12" fill="#A3B1BF"/>
<path d="M12 4.5C14.625 4.5 16.5 6.75 17.25 9C19.5 9.75 20.25 11.7975 20.25 13.5L18.1688 14.0948C18.0121 14.1395 17.8744 14.2341 17.7763 14.3641C17.6782 14.4942 17.6251 14.6526 17.625 14.8155V15.9375C17.625 16.2856 17.4867 16.6194 17.2406 16.8656C16.9944 17.1117 16.6606 17.25 16.3125 17.25H15.8655C15.6177 17.25 15.3737 17.3113 15.1554 17.4286C14.9371 17.5458 14.7513 17.7154 14.6145 17.922C13.9185 18.975 13.047 19.5 12 19.5C10.953 19.5 10.0815 18.9742 9.3855 17.922C9.24871 17.7154 9.06286 17.5458 8.84456 17.4286C8.62626 17.3113 8.3823 17.25 8.1345 17.25H7.6875C7.3394 17.25 7.00556 17.1117 6.75942 16.8656C6.51328 16.6194 6.375 16.2856 6.375 15.9375V14.8155C6.37493 14.6526 6.32183 14.4942 6.22373 14.3641C6.12563 14.2341 5.98786 14.1395 5.83125 14.0948L3.75 13.5C3.75 11.8005 4.5 9.75 6.75 9C7.5 6.75 9.375 4.5 12 4.5ZM12 12C11.379 12 10.875 12.84 10.875 13.875C10.875 14.91 11.379 15.75 12 15.75C12.621 15.75 13.125 14.91 13.125 13.875C13.125 12.84 12.621 12 12 12ZM10.125 9C9.82663 9 9.54048 9.11853 9.3295 9.3295C9.11853 9.54048 9 9.82663 9 10.125C9 10.4234 9.11853 10.7095 9.3295 10.9205C9.54048 11.1315 9.82663 11.25 10.125 11.25C10.4234 11.25 10.7095 11.1315 10.9205 10.9205C11.1315 10.7095 11.25 10.4234 11.25 10.125C11.25 9.82663 11.1315 9.54048 10.9205 9.3295C10.7095 9.11853 10.4234 9 10.125 9ZM13.875 9C13.5766 9 13.2905 9.11853 13.0795 9.3295C12.8685 9.54048 12.75 9.82663 12.75 10.125C12.75 10.4234 12.8685 10.7095 13.0795 10.9205C13.2905 11.1315 13.5766 11.25 13.875 11.25C14.1734 11.25 14.4595 11.1315 14.6705 10.9205C14.8815 10.7095 15 10.4234 15 10.125C15 9.82663 14.8815 9.54048 14.6705 9.3295C14.4595 9.11853 14.1734 9 13.875 9Z" fill="white"/>
</svg>
