<svg width="24" height="24" viewBox="0 0 24 24" fill="none" xmlns="http://www.w3.org/2000/svg">
<circle cx="12" cy="12" r="12" fill="#FFB48A"/>
<path d="M16.1249 4.5C16.8126 4.50005 17.4838 4.71015 18.0488 5.10218C18.6137 5.49421 19.0454 6.04946 19.2861 6.6936C19.5269 7.33775 19.5651 8.04005 19.3956 8.7065C19.2262 9.37295 18.8573 9.97175 18.3382 10.4228C18.6044 11.148 18.7499 11.9325 18.7499 12.75C18.7494 13.7362 18.5327 14.7102 18.1153 15.6037C17.6978 16.4971 17.0896 17.2882 16.3335 17.9214C15.5775 18.5545 14.6918 19.0143 13.739 19.2684C12.7861 19.5224 11.7891 19.5646 10.8182 19.392C9.84722 19.2193 8.92591 18.836 8.11904 18.269C7.31216 17.702 6.63933 16.9651 6.14786 16.1101C5.6564 15.2552 5.35825 14.3029 5.27438 13.3203C5.19051 12.3377 5.32296 11.3487 5.66242 10.4228C5.29499 10.1034 5.00097 9.70844 4.80055 9.26482C4.60013 8.82121 4.49804 8.33949 4.5013 7.85271C4.50455 7.36593 4.61306 6.88562 4.81939 6.44472C5.02573 6.00382 5.32499 5.61278 5.69666 5.29841C6.06833 4.98405 6.5036 4.7538 6.97262 4.62347C7.44163 4.49314 7.9333 4.46581 8.41387 4.54336C8.89444 4.6209 9.35255 4.80149 9.75677 5.07273C10.161 5.34397 10.5017 5.69944 10.7557 6.11475C11.5786 5.96121 12.4228 5.96121 13.2457 6.11475C13.5468 5.62127 13.9698 5.21354 14.4741 4.93075C14.9783 4.64796 15.5468 4.49963 16.1249 4.5ZM10.4999 12.75H8.99992C8.99991 13.5327 9.30576 14.2843 9.85222 14.8447C10.3987 15.405 11.1425 15.7295 11.9249 15.7491C12.7073 15.7687 13.4664 15.4817 14.0402 14.9494C14.614 14.4171 14.9571 13.6817 14.9962 12.9L14.9999 12.75H13.4999C13.5017 13.1392 13.352 13.5139 13.0826 13.7949C12.8132 14.0758 12.4452 14.2411 12.0562 14.2557C11.6673 14.2703 11.2878 14.1331 10.9981 13.8731C10.7084 13.6132 10.5311 13.2508 10.5037 12.8625L10.4999 12.75Z" fill="white"/>
</svg>
