<svg width="42" height="56" viewBox="0 0 42 56" fill="none" xmlns="http://www.w3.org/2000/svg">
<path d="M20.7407 38.0247C11.1948 38.0247 3.45679 30.2867 3.45679 20.7407C3.45679 11.1948 11.1948 3.45679 20.7407 3.45679C30.2867 3.45679 38.0247 11.1948 38.0247 20.7407C38.0247 30.2867 30.2867 38.0247 20.7407 38.0247ZM22.4691 22.4691V20.7407H27.6543V17.2839H23.1847L26.8523 13.618L24.4067 11.1723L20.7407 14.84L17.0748 11.1723L14.6291 13.6197L18.2968 17.2839H13.8272V20.7407H19.0123V22.4691H13.8272V25.9259H19.0123V29.3827H22.4691V25.9259H27.6543V22.4691H22.4691Z" fill="#51B266"/>
<rect x="7.25928" y="31.1111" width="2.07407" height="13.4815" fill="#51B266"/>
<rect x="13.4814" y="36.2963" width="2.07407" height="13.4815" fill="#51B266"/>
<rect x="25.926" y="36.2963" width="2.07407" height="13.4815" fill="#51B266"/>
<rect x="19.7036" y="42.5186" width="2.07407" height="13.4815" fill="#51B266"/>
<rect x="32.1482" y="31.1111" width="2.07407" height="13.4815" fill="#51B266"/>
</svg>
