<svg width="14" height="12" viewBox="0 0 14 12" fill="none" xmlns="http://www.w3.org/2000/svg">
<path d="M0.333375 3.99601C0.333023 3.47081 0.436276 2.9507 0.637219 2.46546C0.838163 1.98023 1.13285 1.53939 1.50441 1.16821C1.87596 0.797023 2.31709 0.502777 2.80253 0.302319C3.28797 0.101861 3.80818 -0.000871342 4.33338 5.56683e-06H9.66671C11.8754 5.56683e-06 13.6667 1.79667 13.6667 3.99601V12H4.33338C2.12471 12 0.333375 10.2033 0.333375 8.004V3.99601ZM12.3334 10.6667V3.99601C12.3316 3.28967 12.05 2.61283 11.5501 2.11375C11.0503 1.61467 10.373 1.33404 9.66671 1.33334H4.33338C3.98327 1.33246 3.63644 1.4007 3.31277 1.53416C2.9891 1.66761 2.69496 1.86364 2.44722 2.11102C2.19947 2.35839 2.003 2.65224 1.86906 2.97571C1.73512 3.29918 1.66636 3.6459 1.66671 3.99601V8.004C1.66847 8.71034 1.95012 9.38718 2.44995 9.88626C2.94978 10.3853 3.62704 10.666 4.33338 10.6667H12.3334ZM8.33338 5.33334H9.66671V6.66667H8.33338V5.33334ZM4.33338 5.33334H5.66671V6.66667H4.33338V5.33334Z" fill="#666666"/>
</svg>
