<svg width="14" height="14" viewBox="0 0 14 14" fill="none" xmlns="http://www.w3.org/2000/svg">
<path d="M6.35833 1.22504L12.1327 2.05045L12.9576 7.82545L7.59558 13.1875C7.48619 13.2968 7.33784 13.3582 7.18316 13.3582C7.02848 13.3582 6.88013 13.2968 6.77074 13.1875L0.995743 7.41245C0.886385 7.30306 0.824951 7.15472 0.824951 7.00004C0.824951 6.84536 0.886385 6.69701 0.995743 6.58762L6.35833 1.22504ZM8.00799 6.1752C8.11635 6.28352 8.24498 6.36944 8.38654 6.42804C8.5281 6.48665 8.67982 6.5168 8.83303 6.51678C8.98625 6.51675 9.13795 6.48654 9.27949 6.42789C9.42103 6.36923 9.54963 6.28327 9.65795 6.17491C9.76627 6.06655 9.85219 5.93792 9.91079 5.79636C9.9694 5.6548 9.99955 5.50308 9.99952 5.34987C9.9995 5.19666 9.96929 5.04495 9.91063 4.90341C9.85198 4.76187 9.76602 4.63327 9.65766 4.52495C9.5493 4.41663 9.42067 4.33072 9.27911 4.27211C9.13755 4.21351 8.98583 4.18335 8.83262 4.18338C8.52319 4.18344 8.22646 4.30641 8.0077 4.52524C7.78894 4.74408 7.66608 5.04086 7.66613 5.35028C7.66618 5.65971 7.78916 5.95644 8.00799 6.1752Z" fill="#666666"/>
</svg>
